# xmcd
#
# Track frame offsets:
#	150
#	12730
#	30558
#	44489
#	62456
#	77462
#	96033
#	111052
#	129042
#	148543
#	162350
#	173739
#	190512
#
# Disc length: 2693 seconds
# Revision: 0
# Processed by: cddbd v1.5.2PL0 Copyright (c) Steve Scherf et al.
# Submitted via: dBpowerAMP V12.0
#
DISCID=990a830d
DTITLE=Mike Bentley and Cumberland Gap Connection - Mike Bentley and Cumberland Gap Connection
DYEAR=2015
DGENRE=
TTITLE0=Truck Drivin'
TTITLE1=Chill Of a Late Frost
TTITLE2=Better Days
TTITLE3=I Never Go Around Mirrors
TTITLE4=Back to Carolina
TTITLE5=She Don't Talk to the Moon
TTITLE6=Old Steamboats and Trains
TTITLE7=He Knows My Name
TTITLE8=Coal Miner's Dance
TTITLE9=Beech Hollow
TTITLE10=I Hear Kentucky Callin' Me
TTITLE11=Giving Up on You
TTITLE12=When I Make My Last Move
EXTD=
EXTT0=
EXTT1=
EXTT2=
EXTT3=
EXTT4=
EXTT5=
EXTT6=
EXTT7=
EXTT8=
EXTT9=
EXTT10=
EXTT11=
EXTT12=
PLAYORDER=
